<?xml version="1.0" encoding="utf-8"?>
<!-- Generator: Adobe Illustrator 24.3.0, SVG Export Plug-In . SVG Version: 6.00 Build 0)  -->
<svg version="1.1" id="Layer_1" xmlns="http://www.w3.org/2000/svg" xmlns:xlink="http://www.w3.org/1999/xlink" x="0px" y="0px"
	 viewBox="0 0 1279.8 592.9" style="enable-background:new 0 0 1279.8 592.9;" xml:space="preserve">
<style type="text/css">
	.st0{fill:#065352;}
	.st1{fill:#F68822;}
</style>
<g>
	<path class="st0" d="M157.4,564c0-20.3,0-40.5,0-60.9c15-1.4,28.6-0.5,39.2,11.3c4.5,5,7.6,10.6,7.7,17.1
		c0.4,17.7,0.1,35.4,0.1,53.6c-1.6,0.2-3.1,0.5-4.7,0.5c-42,0-84,0-126,0c-13.8,0-25.8-4.7-35.1-15.1
		c-10.5-11.7-12.6-25.7-11.1-40.9c3.1-30,5.8-59.9,8.6-89.9c4.9-51.4,9.9-102.8,14.8-154.2c3.5-37.1,7-74.1,10.3-111.2
		c1.4-16,13.4-27.7,29.6-27.9c15.5-0.2,31-0.1,46.6-0.1c3.1,0,6.1,0,10.3,0c0-3.5-0.1-6.5,0-9.5c0.7-14.2,0.1-28.6,2.4-42.5
		c7.3-43.1,44.9-79.2,88-85.7c64.5-9.8,122.6,38.6,124.3,103.8c0.3,9.5,0.2,19,0,28.5c-0.1,4.2,1,5.7,5.5,5.7
		c16.8-0.3,33.6-0.2,50.4-0.1c17.3,0.1,29,11.3,30.5,28.5c3.2,36.3,6.7,72.7,10.2,109c3.1,33.2,6.3,66.5,9.5,99.7
		c4.7,48.7,9.2,97.4,14.1,146c1.8,17.5-1.5,33.1-15.4,45.1c-8.5,7.3-18.5,10.9-29.7,10.9c-42.7,0.1-85.5,0.1-128.2,0.1
		c-1.1,0-2.1-0.2-3.8-0.4c0-3.2,0-6.3,0-9.3c0-13,0-25.9,0-38.9c0-18.6,13.5-33.1,32.2-34.3c4.7-0.3,9.5,0,14.8,0
		c0.1,1.4,0.3,3,0.3,4.6c0,17.3,0.2,34.7,0,52c0,4.4,1.5,5.6,5.7,5.5c19.7-0.2,39.4-0.1,59.2-0.1c8.3,0,10.9-2.6,10.9-10.8
		c0-73.4-0.1-146.8,0-220.2c0-7.1-2.5-11.9-8-16.2c-52.3-41.8-104.4-83.9-156.6-125.9c-6.4-5.2-11.6-5-18.1,0.2
		c-48.5,39-97,78-145.4,117.1c-1.3,1-2.5,2.1-3.8,3.1c-17.4,14-14.9,9.7-14.9,32c-0.1,70.1-0.1,140.2-0.1,210.4
		c0,7.2,2.6,10.3,9,10.3c21.4,0.1,42.7,0,64.1-0.1C155.3,564.7,155.8,564.4,157.4,564z M176.1,146.3c9.6,0,18.8,0,28.1,0
		c41.6,0,83.3-0.1,124.9-0.1c4.5,0,6.1-1.1,5.8-5.8c-0.4-8,0.1-16.1-0.1-24.1c-0.8-37.4-25.1-68.8-60.1-77.7
		c-34.2-8.7-69.8,6.9-88.4,38.4C173.6,98.7,175.9,122.3,176.1,146.3z"/>
	<path class="st0" d="M266.2,303c0-8.4-0.1-15.9,0.1-23.3c0-1.6,1.1-3.2,1.7-4.8c1.6,0.6,3.5,0.9,4.7,1.9
		c18.1,15.5,36.2,31.2,54.3,46.8c3.4,2.9,4,5.2,0.2,8.3c-18.4,15-36.7,30.1-55,45.1c-1.1,0.9-2.8,1.1-4.3,1.7
		c-0.6-1.6-1.6-3.1-1.6-4.7c-0.2-6.8,0-13.5-0.3-20.3c-0.1-1.4-1.8-3.7-3-3.9c-35.6-4.9-73.2,4.9-94.9,38.4
		c-3.9,6-6.2,13.1-9.2,19.8c-0.5,1-0.8,2.2-1.6,3.1c-2-30.8,3.3-59.3,26.2-81.9C206.2,307,234.6,301,266.2,303z"/>
	<path class="st1" d="M342.4,368.4c1.2,19,0.2,36.3-7.3,53.1c-11.5,25.5-30.8,41.4-57.2,49.4c-13.5,4.1-27.3,4.6-41.2,4
		c-4.5-0.2-6.1,1.2-6,5.8c0.1,6.6-0.5,13.3-0.8,21.4c-2.7-1.6-4.4-2.2-5.6-3.3c-17.6-15.2-35.2-30.6-52.9-45.8
		c-3.7-3.2-2.5-5.4,0.5-7.9c15.5-12.8,31-25.5,46.4-38.3c2.1-1.7,4.1-3.6,6.3-5.2c1.2-0.9,2.8-1.2,4.3-1.8c0.6,1.4,1.6,2.9,1.6,4.3
		c0.2,6.9-0.1,13.9,0.2,20.8c0.1,1.5,2,4.1,3.3,4.2c18.6,1.5,37.1,1.6,55.1-5c25.5-9.4,42-27.5,51.9-52.2
		C341.3,371,341.7,370.2,342.4,368.4z"/>
	<g>
		<path class="st0" d="M675.8,346.2c-16,0-30.1,0.2-44.3-0.2c-1.7,0-3.7-2.6-4.8-4.5c-12.6-20.9-25.1-41.8-37.3-62.9
			c-2.6-4.6-5.7-6.4-11-6.2c-8,0.3-15.9,0.4-23.9,0.1c-5.4-0.2-7,1.7-7,7.1c0.2,19.3,0,38.7,0,58c0,2.4,0,4.8,0,7.9
			c-13.6,0-26.7,0-40.1,0c0-69.1,0-137.8,0-206.9c1.2-0.3,2.3-0.9,3.4-0.9c32.6,0.3,65.3-0.7,97.7,1.4c24.9,1.6,45.1,13.7,55.4,38.2
			c11.4,26.9,7.5,71.7-33.7,87.7c-1.1,0.4-2.2,1-4,1.9C642.6,293,658.7,318.8,675.8,346.2z M548.5,174.1c-0.1,0.3-0.5,0.7-0.6,1.2
			c-0.1,19.5-0.3,39.1,0,58.6c0,1.5,3.5,4.2,5.5,4.3c14.5,0.3,29,0.5,43.4-0.2c18.4-0.8,29.9-12.4,30.9-30
			c1-18.4-8.7-31.7-27.3-33.5C583.4,172.8,566.2,174.1,548.5,174.1z"/>
		<path class="st0" d="M720.3,281.2c0,15.3,9.2,27.5,24.4,33.3c17.9,6.8,35,1.5,50.6-16.1c9.5,5.2,19.1,10.5,29.2,16
			c-5.6,11.1-13.7,19-23.8,24.9c-27,15.7-82.1,16.1-107.3-23.5c-20.1-31.6-18.4-93.2,27.1-116.2c24.8-12.5,68.5-12.5,91.6,16.1
			c15.3,19,19,41,16.9,65.5C792.4,281.2,756.3,281.2,720.3,281.2z M791.9,255c-1.7-20.8-17.2-33.5-38.3-32
			c-18.5,1.3-33.6,16-32.7,32C744.5,255,768.1,255,791.9,255z"/>
		<path class="st0" d="M1126.9,281c-37.1,0-73,0-108.9,0c-1.2,13.4,7.3,26.1,20.8,32.2c19.2,8.5,38,3.7,54.3-14.4
			c9.3,5,18.7,10.1,28.6,15.4c-4.3,9.2-10.7,15.9-18.3,21.5c-33.3,24.6-88.6,15.6-112-18.5c-22.6-33-18.8-94.8,26.4-117.3
			c43.6-21.7,106.9-2.9,109,66.2C1127,270.6,1126.9,275.2,1126.9,281z M1017.2,254.9c24.4,0,48.2,0,72.2,0
			c-2.2-20-15.5-31.8-35.2-32.1C1035.4,222.5,1020.4,235.1,1017.2,254.9z"/>
		<path class="st0" d="M933.9,238.5c-9.7-15.3-23.6-18.7-39.5-15.6c-6.6,1.2-12.6,4.3-13.5,12.1c-0.8,6.8,2.8,11.8,11.5,14.4
			c9.4,2.8,19.2,4.5,28.8,7c6.5,1.7,13,3.6,19.3,6c15.9,6.1,25.1,17.6,26.2,34.8c1.1,16.8-4.7,30.8-18.7,40.8
			c-20.8,14.9-75.6,17.8-99.4-10.2c-3.2-3.8-5.8-8.1-9.1-12.9c10.7-5.6,20.5-10.6,30.6-15.8c9.2,15.6,23.2,20.5,39.7,19.4
			c3.6-0.2,7.2-1.1,10.5-2.3c5.9-2.1,9.7-6.3,9.7-13c0-6.4-3.4-10.7-9.2-12.5c-9.7-2.9-19.7-4.8-29.4-7.6c-8.8-2.5-18-4.4-25.9-8.7
			c-28.4-15.3-28.7-54.2-1-72.9c22.7-15.3,64.6-13.2,85.2,4.7c5.1,4.4,8.7,10.4,13.7,16.4C952.7,228.5,943.6,233.4,933.9,238.5z"/>
		<path class="st0" d="M1252.6,345.8c-13.2,0-25.2,0-37.7,0c0-69.3,0-138.2,0-208.2c11.5,0,23.2-0.1,34.9,0.3c1,0,2.7,3.5,2.7,5.5
			c0.3,9.9,0.1,19.8,0.1,29.7c0,54.5,0,109.1,0,163.6C1252.6,339.5,1252.6,342.3,1252.6,345.8z"/>
		<path class="st0" d="M1185.8,345.7c-13.3,0-25.3,0-37.8,0c0-69.3,0-138.2,0-208.2c11.6,0,23.1-0.2,34.5,0.3c1.1,0,3,3.8,3.1,5.9
			c0.3,13.5,0.1,27,0.1,40.5c0,49.2,0.1,98.5,0.1,147.7C1185.8,336.2,1185.8,340.5,1185.8,345.7z"/>
	</g>
	<g>
		<path class="st1" d="M893.3,442.2c7.1-6.7,12.6-14.3,20-18.3c7.5-4.1,16.8-4.9,25.4-6.6c4.3-0.8,6.6,2,6.5,6.5
			c-0.2,8-0.5,15.9-0.5,23.9c0,4.3-1.9,5.8-6.2,5.8c-6.2,0.1-12.6,0.4-18.7,1.6c-14.1,2.8-22.2,12.3-24.9,26
			c-1.3,6.5-1.2,13.4-1.3,20.2c-0.2,20-0.3,40.1,0,60.1c0.1,6.2-1.9,8.7-8.4,8.3c-7.5-0.4-15-0.3-22.4,0c-4.5,0.2-6.5-1-6.5-6
			c0.2-45.9,0.2-91.7,0.2-137.6c0-4.7,1.9-6.5,6.5-6.4c7.7,0.1,15.5,0.2,23.2-0.1c4.3-0.1,6.1,1.4,6.2,5.8
			C892.4,431.1,893,436.8,893.3,442.2z"/>
		<path class="st1" d="M965.4,494.2c0-22.2,0.2-44.4-0.1-66.6c-0.1-6.5,2.1-8.5,8.4-8.1c7,0.5,14,0.7,21,0.1
			c7.4-0.7,8.5,3.4,8.5,9.1c-0.1,16.7-0.3,33.3-0.3,50c-0.1,27.8-0.4,55.5-0.2,83.3c0,6.1-2.2,8.1-8.1,7.8c-7-0.3-14-0.2-21,0.1
			c-5.7,0.3-7.6-1.9-7.6-7.6c0.2-22.7,0.1-45.4,0.1-68.1C965.8,494.2,965.6,494.2,965.4,494.2z"/>
		<path class="st1" d="M634.4,461.3c6.9,3.8,13.3,6.4,18.8,10.5c28.1,20.6,25.6,68-4.2,86.1c-13.7,8.3-28.7,11.5-44.3,11.7
			c-31.4,0.5-62.8,0.2-94.2,0.2c-0.7,0-1.4-0.3-2.8-0.6c0-3.7,0-7.4,0-11.2c-0.1-56-0.3-112.1-0.3-168.1c0-7,0.6-14,0.6-21
			c0-4.4,1.9-5.9,6.1-5.9c31.4,0.1,62.8-0.4,94.2,0.4c25.2,0.7,48.7,18.1,53.2,38.9c5.3,24.3,0.5,44.7-24,56.7
			C636.6,459.3,636,460,634.4,461.3z M578.4,480C578.4,480,578.4,480,578.4,480c-8.4,0-16.9,0.1-25.3-0.1c-4.7-0.1-6.4,1.7-6.4,6.4
			c0.1,14.7,0.1,29.4-0.1,44.1c-0.1,4.6,1.7,6.5,6.4,6.5c15.7-0.2,31.4,0.3,47-0.3c9.1-0.4,18.4-1.8,25.1-9.2
			c8.3-9,8.8-19.6,4.9-30.4c-4.2-11.8-14.4-15.8-25.7-16.7C595.8,479.4,587.1,480,578.4,480z M575,448.8c0-0.1,0-0.2,0-0.3
			c7.7,0,15.5,0.5,23.2-0.1c15.7-1.1,25.4-10.8,25.9-24.9c0.5-15-7.4-25.2-23.5-26.7c-16.3-1.5-32.8-0.8-49.1-1
			c-4.6,0-4.6,3.4-4.6,6.6c0,13.3,0.1,26.6,0,39.8c-0.1,4.7,1.9,6.5,6.5,6.5C560.6,448.7,567.8,448.8,575,448.8z"/>
		<path class="st1" d="M700.1,454.8c4.2-13.2,11.9-22.4,22.9-28.1c26.2-13.6,53.3-14.6,79.9-1.2c15.7,7.9,24.2,21.9,24.7,39.1
			c1,33.1,0.5,66.2,0.7,99.2c0,3.9-1.5,5.8-5.5,5.7c-7.5-0.1-15-0.1-22.4,0.1c-5.1,0.2-6.8-2.1-6.6-6.9c0.2-3.2-0.4-6.5-0.8-11.1
			c-4.6,3.9-8.1,6.6-11.4,9.6c-17,15.5-56.5,15.5-75.2-0.3c-22.1-18.8-18.7-59.4,10.6-72c16.6-7.2,34.4-7.1,51.9-8.1
			c6-0.3,12.1,0.4,18.1-0.2c1.9-0.2,4.9-3,5.2-4.9c2-16.6-7.9-28-24.6-29.1c-14.5-1-27.6,1-35.8,15c-0.8,1.3-3.8,2.2-5.4,1.8
			C717.8,460.8,709.4,457.9,700.1,454.8z M773.8,502.9c-0.1-0.5-0.3-1.1-0.4-1.6c-11.4,2.6-23,4.4-34.1,7.9
			c-7.8,2.4-10,9.5-9.9,17.5c0.2,7.9,3.5,13.5,10.7,16.3c12.1,4.7,24.1,4.2,35.6-1.7c10.3-5.2,15.7-13.7,16.4-25.4
			c0.8-13,0.5-13.3-12.7-13.1C777.7,503,775.8,502.9,773.8,502.9z"/>
		<path class="st1" d="M983.8,354.6c12.4,0.1,23,10.3,22.9,22.2c-0.1,11.9-10.9,22.2-23,21.9c-11.9-0.2-21.7-10.5-21.6-22.6
			C962.1,364.6,972.3,354.5,983.8,354.6z"/>
	</g>
</g>
</svg>
